<?xml version="1.0" encoding="utf-8"?>
<!-- Generator: Adobe Illustrator 18.1.1, SVG Export Plug-In . SVG Version: 6.00 Build 0)  -->
<svg version="1.1" id="Layer_1" xmlns="http://www.w3.org/2000/svg" xmlns:xlink="http://www.w3.org/1999/xlink" x="0px" y="0px"
	 viewBox="0 0 170.1 62.4" enable-background="new 0 0 170.1 62.4" xml:space="preserve">
<g>
	<g>
		<path fill="#64b1a1" d="M71.1,4.9v0.9l-1.3,0.1l-0.4,0.3v4.9h7.2V6.1l-0.4-0.3L75,5.8V4.9h5.1v0.9l-1.2,0.1l-0.4,0.3v11.5l0.4,0.3
			l1.2,0.1v0.9H75v-0.9l1.3-0.1l0.4-0.3v-5.6h-7.2v5.6l0.4,0.3l1.3,0.1v0.9H66v-0.9l1.2-0.1l0.4-0.3V6.1l-0.4-0.3L66,5.8V4.9H71.1z"
			/>
		<path fill="#64b1a1" d="M81.4,18.2l1.1-0.1l0.4-0.3v-7.7l-0.4-0.3l-1.1-0.1V8.9H86v0.8l-1,0.1l-0.4,0.3v5.7l4.9-5.2v-0.5l-0.4-0.3
			l-1-0.1V8.9h4.6v0.8l-1.1,0.1l-0.4,0.3v7.7l0.4,0.3l1.1,0.1v0.8h-4.6v-0.8l1-0.1l0.4-0.3v-5.9l-4.9,5.2v0.7l0.4,0.3l1,0.1v0.8
			h-4.6V18.2z"/>
		<path fill="#64b1a1" d="M94,18.2l1.1-0.1l0.4-0.3v-7.7l-0.4-0.3L94,9.6V8.9h4.6v0.8l-1,0.1l-0.4,0.3v3.1h4.7v-3.1l-0.4-0.3l-1-0.1
			V8.9h4.6v0.8l-1.1,0.1l-0.4,0.3v7.7l0.4,0.3l1.1,0.1v0.8h-4.6v-0.8l1-0.1l0.4-0.3v-3.6h-4.7v3.6l0.4,0.3l1,0.1v0.8H94V18.2z"/>
		<path fill="#64b1a1" d="M112.8,17.7c-1.6,1.2-2.6,1.4-3.4,1.4c-1.9,0-2.7-1.4-2.7-2.7c0-1.6,1.1-2.2,2.1-2.6
			c0.8-0.3,1.8-0.6,4-1.2v-0.7c0-0.8,0.1-2.3-1.8-2.3c-0.5,0-1.1,0.1-1.7,0.3v1.8h-1.4c-0.3,0-0.7,0-0.7-0.5c0-1.1,1.1-2.5,4.2-2.5
			c0.5,0,1.8,0,2.5,0.8c0.6,0.7,0.7,1.8,0.7,2.2v6.1l0.4,0.4h1.1v0.8h-2.9L112.8,17.7z M112.8,13.3c-0.9,0.3-2.1,0.6-2.8,1
			c-0.7,0.3-1.5,0.8-1.5,1.9c0,0.8,0.4,1.7,1.7,1.7c0.5,0,1.3-0.2,2.6-0.9V13.3z"/>
		<path fill="#64b1a1" d="M65.9,37.8l1.3-0.2l0.4-0.4V25.9l-0.3-0.3l-1.4-0.1v-0.9h4.4v0.6l3.9,10.5l4-10.4v-0.6h4.5v0.9l-1.3,0.1
			l-0.3,0.3v11.5l0.3,0.3l1.3,0.1v0.9h-5v-0.9l1.4-0.1l0.2-0.3V25.6l-5,13.1h-0.9l-4.8-12.9v11.4l0.4,0.4l1.3,0.2v0.9h-4.4V37.8z"/>
		<path fill="#64b1a1" d="M90.5,37.5c-1.6,1.2-2.6,1.4-3.4,1.4c-1.9,0-2.7-1.4-2.7-2.7c0-1.6,1.1-2.2,2.1-2.6c0.8-0.3,1.8-0.6,4-1.2
			v-0.7c0-0.8,0.1-2.3-1.8-2.3c-0.5,0-1.1,0.1-1.7,0.3v1.8h-1.4c-0.3,0-0.6,0-0.6-0.5c0-1.1,1.1-2.5,4.2-2.5c0.5,0,1.8,0,2.5,0.8
			c0.6,0.7,0.7,1.8,0.7,2.2v6.1l0.4,0.4h1.1v0.8h-2.9L90.5,37.5z M90.5,33.1c-0.9,0.3-2.1,0.6-2.8,1c-0.7,0.3-1.5,0.8-1.5,1.9
			c0,0.8,0.4,1.7,1.7,1.7c0.5,0,1.3-0.2,2.6-0.9V33.1z"/>
		<path fill="#64b1a1" d="M94.5,42.5l1.2-0.1l0.3-0.3V29.9h-1.5v-0.6l2.5-0.8h0.8v1.2c1.4-1,2.3-1.2,3.1-1.2c2.1,0,4,1.5,4,4.9
			c0,2-0.8,3.4-1.6,4.1c-0.8,0.8-2,1.3-3.6,1.3c-0.3,0-0.9,0-2-0.2v3.5l0.4,0.3l1.3,0.1v0.8h-4.9V42.5z M97.8,37.5
			c0.7,0.3,1.2,0.4,1.6,0.4c2.5,0,3.6-2,3.6-4.3c0-2-1-3.8-3-3.8c-0.8,0-1.7,0.4-2.2,0.7V37.5z"/>
		<path fill="#64b1a1" d="M110.2,28.6v0.8l-1,0.1l-0.4,0.3V32c0,0.6,0.2,1.8,1.8,1.8c0.6,0,1.5-0.2,2.2-0.5v-3.5l-0.4-0.3l-1-0.1
			v-0.8h4.6v0.8l-1.1,0.1l-0.4,0.3v7.7l0.4,0.3l1.1,0.1v0.8h-4.7v-0.8l1.1-0.1l0.4-0.3v-3.3c-0.8,0.3-1.9,0.5-2.7,0.5
			c-1.5,0-2.2-0.6-2.3-0.7c-0.6-0.6-0.7-1.3-0.7-1.9v-2.2l-0.4-0.3l-1-0.1v-0.8H110.2z"/>
		<path fill="#64b1a1" d="M126.1,37.6c-1.1,0.8-2.5,1.3-3.9,1.3c-3.2,0-4.8-2.3-4.8-5.2c0-1.6,0.5-3,1.5-3.9
			c0.6-0.6,1.7-1.4,3.4-1.4c1.6,0,3.8,0.8,3.8,4.2c0,0.2,0,0.4,0,0.6h-6.8v0.1c0,2.1,1.1,4.4,3.5,4.4c0.7,0,1.8-0.2,3.3-1.2V37.6z
			 M124.2,32.3v-0.5c0-0.4-0.1-1-0.3-1.4c-0.1-0.3-0.6-1.1-1.8-1.1c-1.8,0-2.6,1.6-2.7,3H124.2z"/>
		<path fill="#64b1a1" d="M127.6,37.9l1.1-0.1l0.4-0.3v-7.7l-0.4-0.3l-1.1-0.1v-0.8h4.6v0.8l-1,0.1l-0.4,0.3V33h4.7v-3.1l-0.4-0.3
			l-1-0.1v-0.8h4.6v0.8l-1.1,0.1l-0.4,0.3v7.7l0.4,0.3l1.1,0.1v0.8h-4.6v-0.8l1-0.1l0.4-0.3v-3.6h-4.7v3.6l0.4,0.3l1,0.1v0.8h-4.6
			V37.9z"/>
		<path fill="#64b1a1" d="M140,37.9l1.1-0.1l0.4-0.3v-7.7l-0.4-0.3l-1.1-0.1v-0.8h4.6v0.8l-1,0.1l-0.4,0.3V33h1
			c0.8,0,1.5-0.4,1.9-1.3l0.7-1.6c0.4-1,1-1.7,2-1.7c0.9,0,1.3,0.5,1.3,1.2c0,0.4-0.2,0.8-0.6,1l-1.5-0.8c-0.2,0.3-0.3,0.4-0.4,0.7
			l-0.6,1.5c-0.4,1-1.1,1.3-1.4,1.4v0c1.3,0.3,1.6,1.1,1.9,1.8l1.2,2.3l0.4,0.3l1.4,0.1v0.8h-3.5V38l-1.1-2.6
			c-0.5-1.1-1-1.5-1.8-1.5h-1v3.5l0.4,0.4l1,0.1v0.8H140V37.9z"/>
		<path fill="#64b1a1" d="M160.9,33.7c0,1.7-0.6,3-1.4,3.8c-0.6,0.7-1.8,1.4-3.5,1.4c-1.8,0-3-0.9-3.5-1.5c-0.7-0.8-1.3-2-1.3-3.7
			c0-2.7,1.5-5.2,4.9-5.2C159.1,28.4,160.9,30.8,160.9,33.7z M154,30.3c-0.7,0.9-0.9,2.2-0.9,3.3c0,0.8,0.1,1.8,0.5,2.7
			c0.6,1.3,1.6,1.6,2.3,1.6c0.7,0,1.5-0.4,2.2-1.4c0.7-1,0.8-2,0.8-2.9c0-0.9-0.1-2.3-0.9-3.4c-0.7-0.9-1.6-1-2-1
			C155.6,29.4,154.7,29.4,154,30.3z"/>
	</g>
</g>
<g>
	<path fill="#64b1a1" d="M69.1,52.7h-2.3v4.8h-0.6v-5.3h3.5v5.3h-0.6V52.7z"/>
	<path fill="#64b1a1" d="M74.7,52.7L74.4,53c-0.3-0.3-0.6-0.4-1.1-0.4c-0.9,0-1.5,0.7-1.5,2.3c0,1.6,0.6,2.2,1.5,2.2
		c0.4,0,0.8-0.2,1.1-0.4l0.3,0.4c-0.4,0.4-0.8,0.6-1.4,0.6c-1.3,0-2.1-0.9-2.1-2.7c0-1.8,0.8-2.8,2.1-2.8
		C73.8,52.1,74.2,52.3,74.7,52.7z"/>
	<path fill="#64b1a1" d="M79.4,57.6h-0.6v-3.3c0-0.6,0-1,0.1-1.3l-2.4,4.7h-0.7v-5.3h0.6v3.2c0,0.6,0,1.1-0.1,1.5l2.4-4.6h0.7V57.6z
		"/>
	<path fill="#64b1a1" d="M84.5,57.6h-0.7l-1.4-2.5l-1.4,2.5h-0.6l1.7-2.8l-1.5-2.5h0.6l1.2,2.1l1.2-2.1h0.6l-1.5,2.5L84.5,57.6z"/>
	<path fill="#64b1a1" d="M89.2,54.9c0,1.8-0.8,2.8-2.1,2.8s-2-1-2-2.8c0-1.8,0.8-2.8,2-2.8C88.5,52.1,89.2,53.1,89.2,54.9z
		 M85.7,54.9c0,1.6,0.5,2.3,1.4,2.3s1.4-0.7,1.4-2.3c0-1.6-0.5-2.3-1.4-2.3C86.3,52.6,85.7,53.3,85.7,54.9z"/>
	<path fill="#64b1a1" d="M93.4,52.7h-1.6v4.8h-0.6v-4.8h-1.6v-0.5h3.9L93.4,52.7z"/>
	<path fill="#64b1a1" d="M97.7,55.1h-3.2c0.1,1.5,0.7,2.1,1.5,2.1c0.5,0,0.9-0.2,1.3-0.5l0.3,0.4c-0.4,0.4-0.9,0.6-1.6,0.6
		c-1.3,0-2.1-1-2.1-2.7c0-1.8,0.8-2.8,2-2.8c1.2,0,1.9,0.9,1.9,2.6C97.7,54.9,97.7,55,97.7,55.1z M97.1,54.5c0-1.2-0.4-1.9-1.3-1.9
		c-0.7,0-1.3,0.6-1.4,2.1h2.7V54.5z"/>
	<path fill="#64b1a1" d="M102.9,54.9c0,1.8-0.7,2.8-1.8,2.8c-0.6,0-1.1-0.3-1.4-0.7v2.6l-0.6,0.1v-7.4h0.5l0,0.8
		c0.4-0.5,0.8-0.9,1.5-0.9C102.3,52.1,102.9,53.1,102.9,54.9z M102.3,54.9c0-1.6-0.4-2.3-1.2-2.3c-0.6,0-1,0.4-1.3,0.9v2.9
		c0.3,0.5,0.7,0.8,1.3,0.8C101.9,57.2,102.3,56.5,102.3,54.9z"/>
	<path fill="#64b1a1" d="M107.8,57.3l-0.1,0.4c-0.4-0.1-0.7-0.3-0.8-0.9c-0.3,0.6-0.8,0.9-1.5,0.9c-0.9,0-1.5-0.6-1.5-1.6
		c0-1.1,0.8-1.7,2.1-1.7h0.8v-0.6c0-0.8-0.3-1.2-1.1-1.2c-0.4,0-0.9,0.1-1.3,0.3l-0.2-0.4c0.5-0.2,1-0.4,1.5-0.4
		c1.1,0,1.6,0.6,1.6,1.6v2.7C107.4,57,107.5,57.2,107.8,57.3z M106.8,56.2v-1.5h-0.8c-1,0-1.5,0.4-1.5,1.3c0,0.8,0.4,1.2,1,1.2
		C106.1,57.2,106.6,56.9,106.8,56.2z"/>
	<path fill="#64b1a1" d="M112.2,52.7h-2.3v4.8h-0.6v-5.3h3.5v5.3h-0.6V52.7z"/>
	<path fill="#64b1a1" d="M118.1,55.1h-3.2c0.1,1.5,0.7,2.1,1.5,2.1c0.5,0,0.9-0.2,1.3-0.5l0.3,0.4c-0.4,0.4-0.9,0.6-1.6,0.6
		c-1.3,0-2.1-1-2.1-2.7c0-1.8,0.8-2.8,2-2.8c1.2,0,1.9,0.9,1.9,2.6C118.1,54.9,118.1,55,118.1,55.1z M117.6,54.5
		c0-1.2-0.4-1.9-1.3-1.9c-0.7,0-1.3,0.6-1.4,2.1h2.7V54.5z"/>
	<path fill="#64b1a1" d="M123.1,56c0,1.1-0.8,1.6-2,1.6h-1.6v-5.3c0.5-0.1,1-0.2,1.5-0.2c1.1,0,1.8,0.5,1.8,1.4c0,0.6-0.3,1-0.9,1.1
		C122.7,54.8,123.1,55.2,123.1,56z M120.2,52.7v1.8h1.1c0.6,0,1-0.3,1-1c0-0.6-0.4-0.9-1.2-0.9C120.7,52.6,120.5,52.6,120.2,52.7z
		 M122.5,56c0-0.7-0.4-1-1.2-1h-1.2v2.1h1C121.9,57.1,122.5,56.8,122.5,56z"/>
	<path fill="#64b1a1" d="M127.4,52.7h-1.6v4.8h-0.6v-4.8h-1.6v-0.5h3.9L127.4,52.7z"/>
</g>
<path fill="#64b1a1" d="M66.7,45C55.6,44.8,41,49.1,33,59.2c-1.9-3.4-6.7-11.3-9.7-12.2c-0.5-0.2-1.2-0.2-2.1-0.1
	c-0.8,0-1.8,0-2.8,0.1c-0.8,0.1-1.7,0.1-2.5,0.1c-1.7,0-3.2-0.3-4.1-1.2c-0.6-0.6-0.9-1.5-0.8-2.7l0.1-1.2c0.4-6.2,0.4-7.3-1.5-7.8
	c-1.3-0.3-2-0.7-2.2-1.1c-0.3-0.6,0.2-1.6,1-3c4.3-8.4,4.6-9.6,5.1-12c0.1-0.3,0.1-0.5,0.2-0.8c1.2-4.8,3.7-10.7,11.4-13.2
	c2.8-0.9,5.4-1.3,7.7-1.4c9.7,0.2,15.4,6.7,17.5,11.4c1.6,3.7,4.5,13.3-3.5,22.9c-3,3.6-8.2,5.8-13.5,5.9c-0.6,0-1.2,0-1.8-0.1
	c-5.7-0.7-10.1-3.7-12.6-8.6c-3.4-6.8-1.7-12.5,0.1-15.3c0.2-0.4,1.6-2.7,2.4-2.8c1.1-0.4,1.5,1.5,1.6,2.7c0.1,1.5,0.2,2.9,0.4,4.4
	c0.2,2.2,1.6,3.5,3.5,4.4c1.4,0.6,2.9,0.9,4.4,0.9c0.3,0,0.7,0,0.6,0.5l-0.1,6.5c0,1.5-1,1.8-2.3,2c-0.2,0-0.5,0-0.7,0
	c-0.3,0.1-0.3,0.2-0.3,0.4c0,0.3,0.7,0.3,0.8,0.3c1.4,0,2.7,0,4.1,0c0,0,0,0,0,0s0,0,0,0c1.4,0,2.7,0,4.1,0c0.2,0,0.8,0,0.8-0.3
	c0-0.2,0-0.3-0.3-0.4c-0.2-0.1-0.4,0-0.7,0c-1.3-0.2-2.3-0.6-2.3-2l-0.1-6.5c0-0.5,0.3-0.5,0.6-0.5c1.5,0,3-0.3,4.4-0.9
	c1.9-0.8,3.3-2.2,3.5-4.4c0.2-1.8,0.3-3.6,0.4-5.4c0.1-0.8,0.3-1.5,1.2-1.7c0.1,0,0.3-0.1,0.3-0.4c0-0.2-0.3-0.3-0.4-0.3
	c-1.3,0-3.1,0.5-3.8,2c-0.6,1.1-0.8,2.3-0.9,3.6c-0.1,1.3-0.2,2.6-0.6,3.8c-0.6,1.8-2.6,2.7-4.9,2.4c0-1.8,0-3.6,0-5.4
	c0-1.3,0-2.6,0.2-3.8c0-0.4,0.3-0.9,0.7-1c0.6-0.2,1.3-0.4,1.9-0.5c0.3-0.1,0.6-0.1,0.6-0.4c0-0.2-0.2-0.3-0.6-0.3c0,0-3.8,0-4.3,0
	v0c0,0,0,0,0,0s0,0,0,0v0c-0.5,0-4.3,0-4.3,0c-0.4,0-0.6,0.1-0.6,0.3c0,0.2,0.2,0.3,0.6,0.4c0.6,0.2,1.3,0.3,1.9,0.5
	c0.4,0.2,0.6,0.7,0.7,1C32,19,32,20.3,32,21.6c0,1.8,0,3.6,0,5.4c-2.2,0.3-4.2-0.6-4.9-2.4c-0.4-1.2-0.5-2.5-0.6-3.8
	c-0.1-1.3-0.3-2.5-0.9-3.6c-0.8-1.5-2.5-2-3.8-2c0,0,0,0,0,0c-0.5,0-2.5,0.1-4,1.8c-2.2,2.5-5.1,9.4-1,17.6
	c2.6,5.3,7.4,8.6,13.5,9.3c1,0.1,2,0.2,3,0.1c6,0.1,12-2.3,15.4-6.3c8.5-10.1,5.4-20.3,3.7-24.2C50.2,8.4,43.8,1.3,32.9,1.5
	c-2.7,0-5.8,0.4-9.1,1.4c-8.4,2.7-11,9.3-12.2,14c-0.1,0.3-0.1,0.6-0.2,0.8c-0.6,2.3-0.8,3.4-5,11.7c-0.9,1.8-1.5,3-1,4.1
	c0.4,0.8,1.2,1.3,3,1.8c0.9,0.2,1,0.7,0.6,6.5l-0.1,1.2c-0.1,1.5,0.3,2.8,1.2,3.6c1.4,1.3,3.6,1.6,5.9,1.5c1.2,0,2.5-0.1,3.6-0.1
	c0.6,0,1.2-0.1,1.8-0.1c0.3,0,0.5,0,0.7,0.1c2.5,0.7,7.2,8.4,9.3,12.2h2.4c0,0,0,0,0-0.1c7.6-10,22.1-14.3,33-14.1h9.1V45H66.7z"/>
</svg>
