<?xml version="1.0" encoding="utf-8"?>
<!-- Generator: Adobe Illustrator 18.1.1, SVG Export Plug-In . SVG Version: 6.00 Build 0)  -->
<svg version="1.1" id="Layer_1" xmlns="http://www.w3.org/2000/svg" xmlns:xlink="http://www.w3.org/1999/xlink" x="0px" y="0px"
	 viewBox="0 0 28.4 28.4" enable-background="new 0 0 28.4 28.4" xml:space="preserve">
<g>
	<path fill="#4FAD9E" d="M22.8,3.4H4.3c-2.2,0-4,1.8-4,4V20c0,2.2,1.8,4,4,4h11.7v1.5c0,0.2,0.1,0.4,0.3,0.5c0.2,0.1,0.4,0,0.5-0.1
		l1.5-1.6l1.5,1.6c0.1,0.1,0.2,0.2,0.4,0.2c0.1,0,0.1,0,0.2,0c0.2-0.1,0.3-0.3,0.3-0.5v-1.5h2.2c2.2,0,4-1.8,4-4V7.4
		C26.8,5.2,25,3.4,22.8,3.4z M16.2,19.5l-0.1-0.9c0-0.2-0.1-0.3-0.3-0.4L15,17.8l0.5-0.8c0.1-0.2,0.1-0.4,0-0.5L15,15.7l0.9-0.4
		c0.2-0.1,0.3-0.2,0.3-0.4l0.1-0.9l0.9,0.2c0.2,0,0.4,0,0.5-0.2l0.6-0.7l0.6,0.7c0.1,0.1,0.3,0.2,0.5,0.2l0.9-0.2l0.1,0.9
		c0,0.2,0.1,0.3,0.3,0.4l0.9,0.4L21,16.5c-0.1,0.2-0.1,0.4,0,0.5l0.5,0.8l-0.9,0.4c-0.2,0.1-0.3,0.2-0.3,0.4l-0.1,0.9l-0.9-0.2
		c-0.2,0-0.4,0-0.5,0.2l-0.6,0.7l-0.6-0.7c-0.1-0.1-0.2-0.2-0.4-0.2c0,0-0.1,0-0.1,0L16.2,19.5z M20.6,20.6L20.6,20.6
		c0.2,0,0.3,0,0.4-0.1c0.1-0.1,0.2-0.2,0.2-0.4l0.1-1.2l1.1-0.5c0.1-0.1,0.2-0.2,0.3-0.3c0-0.1,0-0.3,0-0.4l-0.6-1l0.6-1
		c0.1-0.1,0.1-0.3,0-0.4c0-0.1-0.1-0.2-0.3-0.3l-1.1-0.5l-0.1-1.2c0-0.1-0.1-0.3-0.2-0.4c-0.1-0.1-0.3-0.1-0.4-0.1l-1.2,0.3
		l-0.8-0.9c-0.2-0.2-0.6-0.2-0.7,0l-0.8,0.9l-1.2-0.3c-0.1,0-0.3,0-0.4,0.1c-0.1,0.1-0.2,0.2-0.2,0.4l-0.1,1.2L14.1,15
		c-0.1,0.1-0.2,0.2-0.3,0.3c0,0.1,0,0.3,0,0.4l0.6,1l-0.6,1c-0.1,0.1-0.1,0.3,0,0.4c0,0.1,0.1,0.2,0.3,0.3l1.1,0.5l0.1,1.2
		c0,0.1,0.1,0.3,0.2,0.4c0.1,0.1,0.3,0.1,0.4,0.1l0,0v0.5H4.7c-0.9,0-1.6-0.7-1.6-1.6V7.9c0-0.9,0.7-1.6,1.6-1.6h17.6
		c0.9,0,1.6,0.7,1.6,1.6v11.7c0,0.9-0.7,1.6-1.6,1.6h-1.8V20.6z M18.6,23.3c-0.1-0.1-0.2-0.2-0.4-0.2c-0.1,0-0.3,0.1-0.4,0.2l-1,1
		v-3.9l0.2,0l0.8,0.9c0.1,0.1,0.2,0.2,0.4,0.2c0.1,0,0.3-0.1,0.4-0.2l0.8-0.9l0.2,0v3.9L18.6,23.3z M25.9,20c0,1.7-1.4,3.1-3.1,3.1
		h-2.2v-1h1.8c1.4,0,2.5-1.1,2.5-2.5V7.9c0-1.4-1.1-2.5-2.5-2.5H4.7c-1.4,0-2.5,1.1-2.5,2.5v11.7c0,1.4,1.1,2.5,2.5,2.5h11.2v1H4.3
		c-1.7,0-3.1-1.4-3.1-3.1V7.4c0-1.7,1.4-3.1,3.1-3.1h18.5c1.7,0,3.1,1.4,3.1,3.1V20z"/>
	<path fill="#4FAD9E" d="M7.8,9.1h11.6c0.3,0,0.5-0.2,0.5-0.5c0-0.3-0.2-0.5-0.5-0.5H7.8c-0.3,0-0.5,0.2-0.5,0.5
		C7.3,8.9,7.5,9.1,7.8,9.1z"/>
	<path fill="#4FAD9E" d="M21.4,10.6H5.6c-0.3,0-0.5,0.2-0.5,0.5c0,0.3,0.2,0.5,0.5,0.5h15.8c0.3,0,0.5-0.2,0.5-0.5
		C21.9,10.8,21.7,10.6,21.4,10.6z"/>
	<path fill="#4FAD9E" d="M13.5,13H5.6c-0.3,0-0.5,0.2-0.5,0.5c0,0.3,0.2,0.5,0.5,0.5h7.9c0.3,0,0.5-0.2,0.5-0.5
		C14,13.2,13.8,13,13.5,13z"/>
	<path fill="#4FAD9E" d="M10.4,16.1H5.6c-0.3,0-0.5,0.2-0.5,0.5c0,0.3,0.2,0.5,0.5,0.5h4.7c0.3,0,0.5-0.2,0.5-0.5
		C10.9,16.3,10.6,16.1,10.4,16.1z"/>
	<path fill="#4FAD9E" d="M10.4,18.6H5.6c-0.3,0-0.5,0.2-0.5,0.5c0,0.3,0.2,0.5,0.5,0.5h4.7c0.3,0,0.5-0.2,0.5-0.5
		C10.9,18.8,10.6,18.6,10.4,18.6z"/>
</g>
</svg>
