<?xml version="1.0" encoding="utf-8"?>
<!-- Generator: Adobe Illustrator 18.1.1, SVG Export Plug-In . SVG Version: 6.00 Build 0)  -->
<svg version="1.1" id="Layer_1" xmlns="http://www.w3.org/2000/svg" xmlns:xlink="http://www.w3.org/1999/xlink" x="0px" y="0px"
	 viewBox="0 0 28.4 28.4" enable-background="new 0 0 28.4 28.4" xml:space="preserve">
<path fill="#4FAD9E" d="M25,17.7h-1.9c-0.5-0.6-0.8-1.4-0.8-2.2c0-0.9,0.3-1.7,1-2.3c0.2-0.2,0.2-0.5,0-0.7
	c-0.1-0.1-0.2-0.1-0.3-0.1c0,0,0,0,0,0h-2.4V5.8c0-0.3-0.2-0.5-0.5-0.5H6.7c-2.7,0-2.7,0-2.8,0.1C3.8,5.6,3.8,5.8,3.9,6
	c1.2,1.8,1.2,4.8,0,6.6c-0.1,0.1-0.1,0.3,0,0.5c0.1,0.2,0.2,0.3,0.4,0.3h1.9c-0.3,0.4-0.4,0.8-0.4,1.3v1.7c0,0.5,0.2,1,0.4,1.3h-4
	c-0.2,0-0.3,0.1-0.4,0.3c-0.1,0.2-0.1,0.3,0,0.5c0.8,1.3,0.8,3.5,0,4.8c-0.1,0.2-0.1,0.5,0.1,0.7C2,24,2.1,24,2.2,24h0h8.3h1H25
	c0.9,0,1.6-1,1.6-2.3V20C26.6,18.7,25.9,17.7,25,17.7z M5.1,12.4C5.3,12,5.5,11.5,5.6,11h12.3c0.3,0,0.5-0.2,0.5-0.5
	c0-0.3-0.2-0.5-0.5-0.5H5.7c0-0.5,0-1,0-1.5h12.1c0.3,0,0.5-0.2,0.5-0.5c0-0.3-0.2-0.5-0.5-0.5H5.6C5.5,7.1,5.3,6.7,5.1,6.2
	c2.8,0,12.2,0,14.4,0v6.2H5.1z M6.7,16.4v-1.7c0-0.7,0.6-1.3,1.3-1.3h13.8c-0.3,0.5-0.5,1.1-0.6,1.7H9.2c-0.3,0-0.5,0.2-0.5,0.5
	c0,0.3,0.2,0.5,0.5,0.5h12.1c0.1,0.6,0.3,1.2,0.6,1.7h-3.1h-7.2h-1H8.1C7.3,17.7,6.7,17.1,6.7,16.4z M10.1,18.7v1.7H3.4
	c0-0.6-0.2-1.2-0.4-1.7H10.1z M3.4,21.4h6.7v1.7H3C3.2,22.5,3.3,22,3.4,21.4z M11.1,23.1v-4.4h0.6c0.3,0,0.7,0.6,0.7,1.3v1.7
	c0,0.7-0.4,1.3-0.7,1.3H11.1z M19.5,21.7c0,0.7-0.4,1.3-0.7,1.3h0H13c0.2-0.4,0.3-0.8,0.3-1.3V20c0-0.5-0.1-1-0.3-1.3h5.9
	c0.3,0,0.7,0.6,0.7,1.3V21.7z M22.6,21.7c0,0.7-0.4,1.3-0.7,1.3h-1.8c0.2-0.4,0.3-0.8,0.3-1.3V20c0-0.5-0.1-1-0.3-1.3h1.8
	c0.3,0,0.7,0.6,0.7,1.3V21.7z M25.7,21.7c0,0.7-0.4,1.3-0.7,1.3h-1.8c0.2-0.4,0.3-0.8,0.3-1.3V20c0-0.5-0.1-1-0.3-1.3H25
	c0.3,0,0.7,0.6,0.7,1.3V21.7z"/>
</svg>
