<?xml version="1.0" encoding="utf-8"?>
<!-- Generator: Adobe Illustrator 18.1.1, SVG Export Plug-In . SVG Version: 6.00 Build 0)  -->
<svg version="1.1" id="Layer_1" xmlns="http://www.w3.org/2000/svg" xmlns:xlink="http://www.w3.org/1999/xlink" x="0px" y="0px"
	 viewBox="0 0 158.7 65.2" enable-background="new 0 0 158.7 65.2" xml:space="preserve">
<g>
	<g>
		<g>
			<path fill="#F7941E" d="M67.3,8.1V9L66,9.1l-0.4,0.3v4.9h7.2V9.3l-0.4-0.3L71.2,9V8.1h5.1V9l-1.2,0.1l-0.4,0.3v11.5l0.4,0.3
				l1.2,0.1v0.9h-5.1v-0.9l1.3-0.1l0.4-0.3v-5.6h-7.2v5.6l0.4,0.3l1.3,0.1v0.9h-5.1v-0.9l1.2-0.1l0.4-0.3V9.3l-0.4-0.3L62.2,9V8.1
				H67.3z"/>
			<path fill="#F7941E" d="M77.6,21.4l1.1-0.1l0.4-0.3v-7.7l-0.4-0.3l-1.1-0.1v-0.8h4.6v0.8l-1,0.1l-0.4,0.3V19l4.9-5.2v-0.5
				l-0.4-0.3l-1-0.1v-0.8H89v0.8l-1.1,0.1l-0.4,0.3V21l0.4,0.3l1.1,0.1v0.8h-4.6v-0.8l1-0.1l0.4-0.3v-5.9l-4.9,5.2V21l0.4,0.3l1,0.1
				v0.8h-4.6V21.4z"/>
			<path fill="#F7941E" d="M90.2,21.4l1.1-0.1l0.4-0.3v-7.7l-0.4-0.3l-1.1-0.1v-0.8h4.6v0.8l-1,0.1l-0.4,0.3v3.1h4.7v-3.1l-0.4-0.3
				l-1-0.1v-0.8h4.6v0.8l-1.1,0.1l-0.4,0.3V21l0.4,0.3l1.1,0.1v0.8h-4.6v-0.8l1-0.1l0.4-0.3v-3.6h-4.7V21l0.4,0.3l1,0.1v0.8h-4.6
				V21.4z"/>
			<path fill="#F7941E" d="M109,20.9c-1.6,1.2-2.6,1.4-3.4,1.4c-1.9,0-2.7-1.4-2.7-2.7c0-1.6,1.1-2.2,2.1-2.6c0.8-0.3,1.8-0.6,4-1.2
				v-0.7c0-0.8,0.1-2.3-1.8-2.3c-0.5,0-1.1,0.1-1.7,0.3v1.8h-1.4c-0.3,0-0.7,0-0.7-0.5c0-1.1,1.1-2.5,4.2-2.5c0.5,0,1.8,0,2.5,0.8
				c0.6,0.7,0.7,1.8,0.7,2.2V21l0.4,0.4h1.1v0.8h-2.9L109,20.9z M109,16.5c-0.9,0.3-2.1,0.6-2.8,1c-0.7,0.3-1.5,0.8-1.5,1.9
				c0,0.8,0.4,1.7,1.7,1.7c0.5,0,1.3-0.2,2.6-0.9V16.5z"/>
			<path fill="#F7941E" d="M62.2,41l1.3-0.2l0.4-0.4V29.1l-0.3-0.3l-1.4-0.1v-0.9h4.4v0.6l3.9,10.5l4-10.4v-0.6H79v0.9l-1.3,0.1
				l-0.3,0.3v11.5l0.3,0.3L79,41v0.9h-5V41l1.4-0.1l0.2-0.3V28.8l-5,13.1h-0.9L64.9,29v11.4l0.4,0.4l1.3,0.2v0.9h-4.4V41z"/>
			<path fill="#F7941E" d="M86.7,40.7c-1.6,1.2-2.6,1.4-3.4,1.4c-1.9,0-2.7-1.4-2.7-2.7c0-1.6,1.1-2.2,2.1-2.6
				c0.8-0.3,1.8-0.6,4-1.2v-0.7c0-0.8,0.1-2.3-1.8-2.3c-0.5,0-1.1,0.1-1.7,0.3v1.8h-1.4c-0.3,0-0.6,0-0.6-0.5c0-1.1,1.1-2.5,4.2-2.5
				c0.5,0,1.8,0,2.5,0.8c0.6,0.7,0.7,1.8,0.7,2.2v6.1l0.4,0.4h1.1v0.8H87L86.7,40.7z M86.7,36.3c-0.9,0.3-2.1,0.6-2.8,1
				c-0.7,0.3-1.5,0.8-1.5,1.9c0,0.8,0.4,1.7,1.7,1.7c0.5,0,1.3-0.2,2.6-0.9V36.3z"/>
			<path fill="#F7941E" d="M90.8,45.7l1.2-0.1l0.3-0.3V33.1h-1.5v-0.6l2.5-0.8H94v1.2c1.4-1,2.3-1.2,3.1-1.2c2.1,0,4,1.5,4,4.9
				c0,2-0.8,3.4-1.6,4.1c-0.8,0.8-2,1.3-3.6,1.3c-0.3,0-0.9,0-2-0.2v3.5l0.4,0.3l1.3,0.1v0.8h-4.9V45.7z M94,40.7
				c0.7,0.3,1.2,0.4,1.6,0.4c2.5,0,3.6-2,3.6-4.3c0-2-1-3.8-3-3.8c-0.8,0-1.7,0.4-2.2,0.7V40.7z"/>
			<path fill="#F7941E" d="M106.4,31.8v0.8l-1,0.1L105,33v2.2c0,0.6,0.2,1.8,1.8,1.8c0.6,0,1.5-0.2,2.2-0.5V33l-0.4-0.3l-1-0.1v-0.8
				h4.6v0.8l-1.1,0.1l-0.4,0.3v7.7l0.4,0.3l1.1,0.1v0.8h-4.7v-0.8l1.1-0.1l0.4-0.3v-3.3c-0.8,0.3-1.9,0.5-2.7,0.5
				c-1.5,0-2.2-0.6-2.3-0.7c-0.6-0.6-0.7-1.3-0.7-1.9V33l-0.4-0.3l-1-0.1v-0.8H106.4z"/>
			<path fill="#F7941E" d="M122.3,40.8c-1.1,0.8-2.5,1.3-3.9,1.3c-3.2,0-4.8-2.3-4.8-5.2c0-1.6,0.5-3,1.5-3.9
				c0.6-0.6,1.7-1.4,3.4-1.4c1.6,0,3.8,0.8,3.8,4.2c0,0.2,0,0.4,0,0.6h-6.8v0.1c0,2.1,1.1,4.4,3.5,4.4c0.7,0,1.8-0.2,3.3-1.2V40.8z
				 M120.4,35.5V35c0-0.4-0.1-1-0.3-1.4c-0.1-0.3-0.6-1.1-1.8-1.1c-1.8,0-2.6,1.6-2.7,3H120.4z"/>
			<path fill="#F7941E" d="M123.8,41.1l1.1-0.1l0.4-0.3V33l-0.4-0.3l-1.1-0.1v-0.8h4.6v0.8l-1,0.1L127,33v3.1h4.7V33l-0.4-0.3
				l-1-0.1v-0.8h4.6v0.8l-1.1,0.1l-0.4,0.3v7.7l0.4,0.3l1.1,0.1v0.8h-4.6v-0.8l1-0.1l0.4-0.3v-3.6H127v3.6l0.4,0.3l1,0.1v0.8h-4.6
				V41.1z"/>
			<path fill="#F7941E" d="M136.2,41.1l1.1-0.1l0.4-0.3V33l-0.4-0.3l-1.1-0.1v-0.8h4.6v0.8l-1,0.1l-0.4,0.3v3.2h1
				c0.8,0,1.5-0.4,1.9-1.3l0.7-1.6c0.4-1,1-1.7,2-1.7c0.9,0,1.3,0.5,1.3,1.2c0,0.4-0.2,0.8-0.6,1l-1.5-0.8c-0.2,0.3-0.3,0.4-0.4,0.7
				l-0.6,1.5c-0.4,1-1.1,1.3-1.4,1.4v0c1.3,0.3,1.6,1.1,1.9,1.8l1.2,2.3l0.4,0.3l1.4,0.1v0.8h-3.5v-0.7l-1.1-2.6
				c-0.5-1.1-1-1.5-1.8-1.5h-1v3.5l0.4,0.4l1,0.1v0.8h-4.6V41.1z"/>
			<path fill="#F7941E" d="M157.2,36.9c0,1.7-0.6,3-1.4,3.8c-0.6,0.7-1.8,1.4-3.5,1.4c-1.8,0-3-0.9-3.5-1.5c-0.7-0.8-1.3-2-1.3-3.7
				c0-2.7,1.5-5.2,4.9-5.2C155.3,31.6,157.2,34,157.2,36.9z M150.2,33.5c-0.7,0.9-0.9,2.2-0.9,3.3c0,0.8,0.1,1.8,0.5,2.7
				c0.6,1.3,1.6,1.6,2.3,1.6c0.7,0,1.5-0.4,2.2-1.4c0.7-1,0.8-2,0.8-2.9c0-0.9-0.1-2.3-0.9-3.4c-0.7-0.9-1.6-1-2-1
				C151.8,32.6,150.9,32.6,150.2,33.5z"/>
		</g>
	</g>
	<g>
		<path fill="#E6E7E8" d="M65.4,55.9H63v4.8h-0.6v-5.3h3.5v5.3h-0.6V55.9z"/>
		<path fill="#E6E7E8" d="M70.9,55.9l-0.3,0.4c-0.3-0.3-0.6-0.4-1.1-0.4c-0.9,0-1.5,0.7-1.5,2.3c0,1.6,0.6,2.2,1.5,2.2
			c0.4,0,0.8-0.2,1.1-0.4l0.3,0.4c-0.4,0.4-0.8,0.6-1.4,0.6c-1.3,0-2.1-0.9-2.1-2.7c0-1.8,0.8-2.8,2.1-2.8
			C70,55.3,70.5,55.5,70.9,55.9z"/>
		<path fill="#E6E7E8" d="M75.6,60.8h-0.6v-3.3c0-0.6,0-1,0.1-1.3l-2.4,4.7h-0.7v-5.3h0.6v3.2c0,0.6,0,1.1-0.1,1.5l2.4-4.6h0.7V60.8
			z"/>
		<path fill="#E6E7E8" d="M80.7,60.8h-0.7l-1.4-2.5l-1.4,2.5h-0.6l1.7-2.8l-1.5-2.5h0.6l1.2,2.1l1.2-2.1h0.6L79,57.9L80.7,60.8z"/>
		<path fill="#E6E7E8" d="M85.4,58.1c0,1.8-0.8,2.8-2.1,2.8s-2-1-2-2.8c0-1.8,0.8-2.8,2-2.8C84.7,55.3,85.4,56.3,85.4,58.1z
			 M82,58.1c0,1.6,0.5,2.3,1.4,2.3s1.4-0.7,1.4-2.3c0-1.6-0.5-2.3-1.4-2.3C82.5,55.8,82,56.5,82,58.1z"/>
		<path fill="#E6E7E8" d="M90.2,55.4v5.3h-0.6v-4.8h-1.8l-0.2,2.3c-0.1,1.9-0.2,2.3-1.2,2.7l-0.2-0.5c0.6-0.2,0.6-0.6,0.7-2.3
			l0.2-2.7H90.2z"/>
		<path fill="#E6E7E8" d="M95.8,58.1c0,1.8-0.8,2.8-2.1,2.8s-2-1-2-2.8c0-1.8,0.8-2.8,2-2.8C95,55.3,95.8,56.3,95.8,58.1z
			 M92.3,58.1c0,1.6,0.5,2.3,1.4,2.3c0.9,0,1.4-0.7,1.4-2.3c0-1.6-0.5-2.3-1.4-2.3C92.9,55.8,92.3,56.5,92.3,58.1z"/>
		<path fill="#E6E7E8" d="M97.3,60.8v-5.3h2.9l-0.1,0.5h-2.2v4.8H97.3z"/>
	</g>
	<path fill="#FFFFFF" d="M63,48.2C51.9,48,37.3,52.3,29.3,62.4c-1.9-3.3-6.7-11.3-9.7-12.2C19,50,18.3,50,17.5,50.1
		c-0.8,0-1.8,0-2.8,0.1c-0.8,0.1-1.7,0.1-2.5,0.1c-1.7,0-3.2-0.3-4.1-1.2c-0.6-0.6-0.9-1.5-0.8-2.7l0.1-1.2c0.4-6.2,0.4-7.3-1.5-7.8
		c-1.3-0.3-2-0.7-2.2-1.1c-0.3-0.6,0.2-1.6,1-3c4.3-8.4,4.6-9.6,5.1-12c0.1-0.3,0.1-0.5,0.2-0.8c1.2-4.8,3.7-10.7,11.4-13.2
		c2.8-0.9,5.4-1.3,7.7-1.4c9.7,0.2,15.4,6.7,17.5,11.4c1.6,3.7,4.5,13.3-3.5,22.9c-3,3.6-8.2,5.8-13.5,5.9c-0.6,0-1.2,0-1.8-0.1
		c-5.7-0.7-10.1-3.7-12.6-8.6c-3.4-6.8-1.7-12.5,0.1-15.3c0.2-0.4,1.6-2.7,2.4-2.8c1.1-0.4,1.5,1.5,1.6,2.7c0.1,1.5,0.2,2.9,0.4,4.4
		c0.2,2.2,1.6,3.5,3.5,4.4c1.4,0.6,2.9,0.9,4.4,0.9c0.3,0,0.7,0,0.6,0.5l-0.1,6.5c0,1.5-1,1.8-2.3,2c-0.2,0-0.5,0-0.7,0
		c-0.3,0.1-0.3,0.2-0.3,0.4c0,0.3,0.7,0.3,0.8,0.3c1.4,0,2.7,0,4.1,0c0,0,0,0,0,0s0,0,0,0c1.4,0,2.7,0,4.1,0c0.2,0,0.8,0,0.8-0.3
		c0-0.2,0-0.3-0.3-0.4c-0.2-0.1-0.4,0-0.7,0c-1.3-0.2-2.3-0.6-2.3-2l-0.1-6.5c0-0.5,0.3-0.5,0.6-0.5c1.5,0,3-0.3,4.4-0.9
		c1.9-0.8,3.3-2.2,3.5-4.4c0.2-1.8,0.3-3.6,0.4-5.4c0.1-0.8,0.3-1.5,1.2-1.7c0.1,0,0.3-0.1,0.3-0.4c0-0.2-0.3-0.3-0.4-0.3
		c-1.3,0-3.1,0.5-3.8,2c-0.6,1.1-0.8,2.3-0.9,3.6c-0.1,1.3-0.2,2.6-0.6,3.8c-0.6,1.8-2.6,2.7-4.9,2.4c0-1.8,0-3.6,0-5.4
		c0-1.3,0-2.6,0.2-3.8c0-0.4,0.3-0.9,0.7-1c0.6-0.2,1.3-0.4,1.9-0.5c0.3-0.1,0.6-0.1,0.6-0.4c0-0.2-0.2-0.3-0.6-0.3c0,0-3.8,0-4.3,0
		v0c0,0,0,0,0,0c0,0,0,0,0,0v0c-0.5,0-4.3,0-4.3,0c-0.4,0-0.6,0.1-0.6,0.3c0,0.2,0.2,0.3,0.6,0.4c0.6,0.2,1.3,0.3,1.9,0.5
		c0.4,0.2,0.6,0.7,0.7,1c0.1,1.3,0.2,2.5,0.2,3.8c0,1.8,0,3.6,0,5.4c-2.2,0.3-4.2-0.6-4.9-2.4c-0.4-1.2-0.5-2.5-0.6-3.8
		c-0.1-1.3-0.3-2.5-0.9-3.6c-0.8-1.5-2.5-2-3.8-2c0,0,0,0,0,0c-0.5,0-2.5,0.1-4,1.8c-2.2,2.5-5.1,9.4-1,17.6
		c2.6,5.3,7.4,8.6,13.5,9.3c1,0.1,2,0.2,3,0.1c6,0.1,12-2.3,15.4-6.3c8.5-10.1,5.4-20.3,3.7-24.2C46.4,11.6,40,4.5,29.1,4.7
		c-2.7,0-5.8,0.4-9.1,1.4c-8.4,2.7-11,9.3-12.2,14c-0.1,0.3-0.1,0.6-0.2,0.8c-0.6,2.3-0.8,3.4-5,11.7c-0.9,1.8-1.5,3-1,4.1
		c0.4,0.8,1.2,1.3,3,1.8c0.9,0.2,1,0.7,0.6,6.5L5,46.3c-0.1,1.5,0.3,2.8,1.2,3.6c1.4,1.3,3.6,1.6,5.9,1.5c1.2,0,2.5-0.1,3.6-0.1
		c0.6,0,1.2-0.1,1.8-0.1c0.3,0,0.5,0,0.7,0.1c2.5,0.7,7.2,8.4,9.3,12.2h2.4c0,0,0,0,0,0C37.5,53.5,52,49.2,63,49.4h9.1v-1.2H63z"/>
</g>
</svg>
