<?xml version="1.0" encoding="utf-8"?>
<!-- Generator: Adobe Illustrator 18.1.1, SVG Export Plug-In . SVG Version: 6.00 Build 0)  -->
<svg version="1.1" id="Layer_1" xmlns="http://www.w3.org/2000/svg" xmlns:xlink="http://www.w3.org/1999/xlink" x="0px" y="0px"
	 viewBox="0 0 85 99.2" enable-background="new 0 0 85 99.2" xml:space="preserve">
<path fill="#F7941E" d="M68.7,61.3l-0.4,0c-0.5,0-1,0.1-1.5,0.1c-0.5-0.8-1.2-1.8-1.9-3c-0.8-1.2-1.5-2.2-1.7-2.7
	c-0.1-0.2-0.3-0.9-0.4-1.7c-0.6-2.7-1.7-7.1-4.4-8.9c-0.8-0.5-1.4-0.9-1.8-0.5c0,0,0,0-0.1,0.1c0.3-1.7,0.9-4.9,1.9-10.5
	c0.7-3.4,1.2-6.1,1.4-8.1c0.6-0.5,1.1-1.2,1.4-1.9c0.4-1.2,0.3-2.5-0.5-3.6c-0.9-1.4-0.8-1.6,0-3.1c0.3-0.5,0.6-1.1,1-2
	c1.4-3-2-5.1-4.2-6.5c-0.6-0.4-1.2-0.7-1.6-1c-0.7-0.5-0.7-1-0.9-1.8c-0.2-1.2-0.4-2.6-2.5-4.6c-0.7-0.7-1.6-0.9-2.6-0.7
	c-0.3,0.1-0.6,0.1-0.9,0.3c-0.4-0.6-1-0.9-1.8-0.9c-3,0.3-8.6,6.3-10,12c-1.1,4.4-1,7.4,0.3,9.7c-0.1,0.5-0.1,1.1-0.1,1.6
	c-0.2-0.4-0.3-0.7-0.6-1c-0.3-0.3-0.7-0.5-1.1-0.5c-1.8,0-2,2.7-2.4,6.9c-0.1,1.6-0.3,3.4-0.6,5.2c-0.9,5.8-2.4,9.3-2.4,9.3
	c-0.1,0.2,0,0.4,0.1,0.5c0.1,0.1,0.3,0.2,0.5,0.2c0.4-0.1,1.2-0.1,2-0.1c-0.7,0.7-1,2.1-1.4,3.9c-0.4,1.6-0.8,3.4-1.4,4.1
	c-0.2,0.2-0.2,0.4,0,0.6c-2.2,0.9-4.8,2-6.8,3.6c-2.7,2.1-2.5,4.2-2.2,5.3h-3.6c-0.3,0-0.5,0.2-0.5,0.5s0.2,0.5,0.5,0.5h4.3
	c0.2,0,0.3-0.1,0.4-0.3s0.1-0.4,0-0.5c-0.1-0.1-1.4-2.3,1.6-4.8c2.6-2,6.1-3.3,8.6-4.2c0.8-0.3,1.6-0.6,2.1-0.8
	c0.7-0.3,1.2-0.5,1.6-0.7c1-0.4,1.5-0.6,1.8-1.2c0,0,0.1-0.1,0.3-0.2c0.2-0.1,1.1-0.3,2.4,0.5c1,0.5,2.8,2.2,4.6,3.9
	c-1.6-1.3-3.9-2.6-5.7-3c-0.7-0.2-2,0.4-3.3,1.3c-1.8,0.3-3.6,1.2-5.7,2.4c-1.3,0.7-2.3,1.3-3.2,1.7c-1.8,0.9-2.9,1.5-3.5,2.3
	c-1.9,2.5-1.3,5.8,1.8,10.3c2.6,3.8,4.2,8.2,5.4,11.6c0.5,1.5,1,2.8,1.5,3.8c0.8,1.6,1.5,3.9,2.2,5.8c0.7,2,1.3,3.7,1.8,4.7
	c0.5,0.9,0.4,1.5,0.3,2c-0.1,0.4-0.2,0.9,0.2,1.4c0.1,0.2,0.4,0.4,0.8,0.4c0.2,0,0.5-0.1,0.9-0.2c0.8-0.4,2.1-1.6,1.9-2.5
	c-0.2-0.5-0.3-1-0.3-1.5c0.1,0.1,0.3,0.1,0.4,0.1c0.9-0.1,3-1.3,3.4-3.7c0.2-1,0-2.1-0.2-3.1c-0.3-1.4-0.5-2.8,0.2-3.7
	c0.8-0.9,1.1-1.9,0.8-2.9c-0.3-1.1-1.2-2.1-2.6-2.7c-0.3-0.1-0.6-0.5-0.9-0.9c-0.1-1.3-0.1-2.9-0.1-4.4c0-2.7,0-5-0.6-6.1
	c-0.7-1.1-1.6-1.9-2.2-2.4c-0.4-0.4-0.9-0.8-0.9-0.9c0.2-0.2,1.7-0.3,2.7-0.3c1.2,0,2.5-0.1,3.6-0.4c1-0.3,1.7-0.7,2.1-1.3
	c0.1-0.2,0.2-0.3,0.2-0.5c0.1,0.3,0.2,0.6,0.3,0.9c0.4,0.8,1.1,1.3,1.9,1.2c0.6-0.1,1-0.4,1.3-0.8c0,0,0,0.1,0,0.1
	c0,0.1,0.1,0.4,0.1,0.9c0.1,1,0.9,1.7,2.1,1.8c1.4,0.1,3.7-0.7,3.9-1.7c0.1-0.5,0.1-1.2-0.1-1.8c0.1-0.2,0.1-0.4,0.2-0.6
	c0.2,0.2,0.4,0.4,0.6,0.6c0.6,0.4,1.2,0.9,1.7,1.4c1.7,1.5,3.5,3,6.1,2.9c1.7-0.1,2.7-0.5,3.2-1.1c0.4-0.7,0.3-1.4,0.1-2
	c-0.1-0.2-0.2-0.4-0.3-0.7c0.3,0,0.6,0,1-0.1l0.4,0c0.3,0,0.5-0.3,0.5-0.5S69,61.3,68.7,61.3z M57.8,46.1c2.4,1.5,3.4,5.7,4,8.3
	c0.2,0.9,0.4,1.5,0.5,1.9c0.3,0.5,1,1.6,1.8,2.8c0.5,0.8,1.1,1.7,1.6,2.5c-2.8,0.1-3.3,0-4.2-0.8c-1.2-1-1.3-2.8-1.5-7.7
	c-0.1-2.7-1.4-5.1-2.1-6.6c-0.1-0.1-0.1-0.3-0.2-0.4C57.7,46,57.7,46.1,57.8,46.1z M58.8,25.7c-0.5,0.3-1,0.6-1.6,0.8
	c-1.1,0.3-1.8,0.8-2.3,1.1c-0.1,0-0.2,0.1-0.3,0.1c0-0.5,0.1-1.3,0.2-2.4c0.2-1.2,0.4-2.6,0.7-3.9c0.1-0.4,0.1-0.7,0.2-1.1
	c0.5-0.1,1,0,1.4,0.2C58.6,21.4,59.1,22.5,58.8,25.7z M51.7,16.9c-0.3-0.4-0.3-1.1,0-1.6c0.4-0.6,1-0.9,1.7-0.9c0.2,0,0.5,0,0.7,0.1
	c1.3,0.3,1.1,2.5,0.6,5.1c-1.4,0.5-2.7,1.5-3.7,2.4c-0.2,0.2-0.4,0.3-0.6,0.5c0.1-0.1,0.2-0.2,0.4-0.4
	C52.5,20.6,52.9,18.3,51.7,16.9z M50.1,2.1c0.7-0.1,1.2,0,1.7,0.5c1.9,1.7,2.1,2.9,2.2,4c0.1,0.8,0.3,1.7,1.2,2.5
	c0.4,0.3,1,0.7,1.7,1.1c2.7,1.6,4.8,3.2,3.9,5.2c-0.4,0.8-0.7,1.4-1,1.9c-0.9,1.7-1.1,2.2,0,4.1c0.6,0.9,0.7,1.9,0.4,2.8
	c-0.1,0.2-0.2,0.4-0.3,0.6c0.1-2.7-0.6-4-2.3-4.9c-0.5-0.2-0.9-0.3-1.4-0.3c-0.1,0-0.2,0-0.3,0c0.5-2.9,0.6-5.4-1.4-5.9
	c-1-0.2-1.8-0.1-2.5,0.2c0.1-0.1,0.2-0.3,0.3-0.4c1.4-1.8,1.9-6.1,0.7-8.6C52.4,3.6,51.5,3,50.3,3c-0.3,0-0.5,0-0.8,0.1
	c0-0.3,0-0.5-0.1-0.8C49.6,2.2,49.9,2.1,50.1,2.1z M49.2,4.2C49.6,4.1,49.9,4,50.3,4c0.8,0,1.3,0.4,1.8,1.2c1.1,2.1,0.6,6-0.6,7.5
	c-0.3,0.4-0.6,0.8-0.8,1.2c-1.4,2-2.4,3.4-5,2.6c-0.8-0.2-1.3-0.8-1.6-1.7c-0.7-2.1,0.2-5.2,0.7-5.8c0.2-0.2,0.6-0.6,1.1-0.9
	C47,7.1,48.6,5.8,49.2,4.2z M46.2,6.4C46.6,6,47,5.6,47.4,5.2C47,5.7,46.6,6.1,46.2,6.4z M48.4,3.4c-2.8,1.2-5,4.7-6.1,7
	c-0.8,1.5-0.3,3.4,0.1,5.2c0.2,0.8,0.4,1.6,0.4,2.2c0,0.5,0,0.8-0.1,0.9c-0.2-0.4-0.4-0.8-0.6-1.2c-0.3-0.9-0.7-1.6-1-2.1
	c-0.6-1.1-0.9-1.5,0.2-3.6c1.3-2.5,4.4-7.2,7.2-9C48.5,3,48.5,3.2,48.4,3.4z M41.3,24.6c-1.1-0.8-2-1.6-2.6-2.6
	c0.2-1,0.7-1.6,1.8-1.8c0.6-0.1,1-0.2,1.4-0.2c0.1,0,0.2,0,0.2,0c0.2,0.4,0.5,0.7,0.8,1.1c1,1.4,1.9,2.6,1.7,4.3
	c-0.1,1.2-0.6,2-1.2,2.5c0,0,0-0.1,0-0.1C43.5,26.7,42.8,25.6,41.3,24.6z M42.8,12.6c0-0.4,0-0.8,0.1-1.2
	C42.9,11.8,42.9,12.2,42.8,12.6z M38.3,12.7c1.3-5.4,6.7-11,9.1-11.2c0,0,0.1,0,0.1,0c0.3,0,0.5,0.1,0.6,0.3c-3.3,2-6.6,7.3-7.8,9.6
	c-1.3,2.5-0.9,3.3-0.2,4.6c0.3,0.5,0.6,1.1,0.9,1.9c0.1,0.4,0.3,0.8,0.5,1.1c-0.4,0-0.8,0.1-1.3,0.2c-1.2,0.2-1.8,0.8-2.2,1.6
	C37.4,18.9,37.4,16.4,38.3,12.7z M32.6,48.4c0.3-1.4,0.8-3.4,1.3-3.5c0.6-0.1,1.7,0.6,2.3,0.9c0.5,0.3,0.9,0.6,1.2,0.2
	c0.3-0.4,0-0.8-0.3-1.3c-1.1-1.5-3.9-1.6-5.3-1.5c0.5-1.3,1.5-4.4,2.1-8.8c0.3-1.8,0.5-3.7,0.6-5.3c0.3-2.9,0.5-6,1.4-6
	c0.1,0,0.2,0,0.4,0.2c0.7,0.8,0.9,3.3,0.9,4.8c0,0.2,0.1,0.3,0.2,0.4c0,0.5,0,1.1,0,1.8c-0.1,0.1-0.2,0.2-0.2,0.4c0,0.2,0,4.5,1,7.3
	c1,2.7,1.3,6,1.3,7.4c0,1-0.6,1.7-1,1.9c-0.3-0.4-0.9-0.9-1.2-1.1c-0.1-0.1-0.3-0.1-0.5-0.1c-0.2,0.1-0.3,0.2-0.3,0.3
	c-0.4,1.4-0.9,3.2-1.1,3.4c-0.3,0.2-2,1-3.7,1.6C32.1,50.7,32.3,49.5,32.6,48.4z M39.8,48.3c-0.1,0.3-0.2,0.6-0.1,0.9
	c-0.6-0.1-1.2-0.1-1.7,0.1c-0.4,0.2-0.8,0.4-0.9,0.8c-0.1,0.2-0.4,0.3-0.9,0.5c0.3-0.5,0.7-1.9,1-2.8c0.3,0.2,0.5,0.5,0.5,0.6
	c0.1,0.2,0.4,0.5,0.8,0.4c0.7-0.1,1.9-1.4,1.9-3c0-1.5-0.3-4.9-1.4-7.8c-0.1-0.2-0.2-0.5-0.2-0.7c0.2,0.3,0.3,0.6,0.5,0.8
	c0.3,0.6,0.7,1.3,1,1.9c1.1,2.5,1.3,3.1,1.4,5.5c0,1.1-0.2,1.2-0.7,1.5C40.6,47.1,40.1,47.4,39.8,48.3z M41.3,49.7
	c0.8,0,2-0.1,3.6,0.5c1.8,0.6,3,3.5,3.7,6.2C46.7,54.4,43,50.7,41.3,49.7z M40.4,92c0,0-0.1,0-0.1,0.1c0-0.3,0.1-0.6,0.1-0.8
	C40.5,91.6,40.4,92,40.4,92z M40,89.1C40,89.2,40,89.2,40,89.1c-0.1,0.1-0.1,0.2-0.1,0.3c-0.1,0.1-1.3,3.3-0.1,7.3
	c0,0.1-0.3,0.6-0.9,1.1c-0.5,0.4-0.8,0.5-0.9,0.4c-0.1-0.2-0.1-0.3,0-0.7c0.1-0.5,0.3-1.4-0.4-2.6c-0.5-0.9-1.1-2.7-1.8-4.6
	c-0.7-2-1.5-4.2-2.3-5.9c-0.4-1-0.9-2.2-1.4-3.7c-1.3-3.5-2.8-7.9-5.5-11.9c-3.7-5.4-2.8-7.8-1.8-9.2c0.4-0.6,1.5-1.1,3.2-2
	c0.9-0.5,2-1,3.3-1.7c0.9-0.5,1.8-1,2.5-1.3c-2,1.6-3.8,3.4-4.3,4.2c-1.4,2.3-1.3,5,0.4,7.1c1.6,2.1,6.1,11.5,6.8,14.7
	c0.5,2.1,1.1,2.4,2.2,2.6c0.5,0.1,1.2,0.2,2.2,0.8c0.5,0.3,0.7,0.6,0.8,1.1c0.1,0.9-0.5,2-1,2.7c-0.1,0-0.2,0-0.3,0
	C40.2,88.1,39.9,88.3,40,89.1z M42.3,87.3c0.1,0.4,0.2,0.8,0.3,1.3c0.1,0.4,0.2,0.8,0.2,0.9c0,0.3-0.1,0.8-0.2,1
	c-0.1-0.1-0.3-0.3-0.5-0.8c-0.2-0.4-0.4-0.7-0.5-1C41.7,88.3,42,87.8,42.3,87.3z M40.7,94c-0.1-0.2-0.1-0.9,0-1
	c0.2-0.1,0.4-0.2,0.6-0.6c0.2-0.5,0.2-1.4-0.2-2.3c0,0,0,0,0,0c0.2,0.5,0.8,1.7,1.7,1.4c0.2,0,0.3-0.1,0.4-0.2
	C42.8,93,41.4,93.9,40.7,94z M42,79.8c1.1,0.5,1.9,1.2,2,2c0.1,0.7-0.1,1.3-0.6,2c-0.3,0.3-0.5,0.7-0.6,1c-0.1-1-0.2-1.8,0-2.2
	c0.1-0.3,0.3-0.3,0.3-0.4c0.1-0.1,0.3-0.2,0.4-0.5c0-0.3-0.1-0.5-0.5-0.9c-0.2-0.2-0.4-0.4-0.7-0.8C42.2,80.1,42.1,79.9,42,79.8
	C42,79.8,42,79.8,42,79.8z M40,67.9c0.5,0.9,0.5,3.3,0.5,5.6c0,0.5,0,0.9,0,1.4c-0.4-1.5-0.7-3.1-0.9-4.4c-0.3-1.5-0.5-2.9-0.8-3.7
	c-0.1-0.2-0.1-0.4-0.2-0.6C39,66.6,39.5,67.2,40,67.9z M35.3,63c-0.4,0-0.6,0.2-0.6,0.4c-0.1,0.4,0.2,0.6,0.5,0.8
	c0.6,0.4,2,1.2,2.5,2.9c0.3,0.8,0.5,2.1,0.8,3.6c0.5,2.8,1.1,5.8,2.1,7.6c0.1,1.1,0.4,2,0.9,2.6c0.3,0.4,0.6,0.6,0.8,0.8
	c0,0,0,0.1,0.1,0.1c-0.1,0.1-0.3,0.3-0.4,0.6c-0.1,0.3-0.2,0.7-0.2,1.2c-0.1-0.1-0.2-0.1-0.3-0.2c-1.1-0.7-1.9-0.8-2.5-0.9
	c-0.8-0.1-1-0.2-1.4-1.8c-0.8-3.4-5.3-12.9-7-15.1c-1.4-1.8-1.5-4.1-0.3-6c0.8-1.3,4-4.1,6.5-5.7c1.1-0.1,2.2,0.1,3.2,0.7l0.8,0.5
	c2.3,1.4,3.8,2.3,4.3,4c0.1,0.3,0.2,0.7,0.2,1c-0.1,0.1-0.3,0.2-0.4,0.3C43.5,61.3,35.9,63,35.3,63z M45.1,61.6
	c-0.2,0.4-0.7,0.7-1.4,0.9c-0.7,0.2-1.7,0.3-2.6,0.3c1.8-0.5,3.4-1.1,4.2-1.6C45.3,61.3,45.2,61.4,45.1,61.6z M48.3,62.6
	c-0.2,0-0.6,0-0.9-0.6c-0.2-0.4-0.3-0.7-0.4-1.1c-0.2-0.6-0.3-1.2-0.8-1.3c-0.1-0.3-0.1-0.7-0.3-1c-0.6-2.1-2.3-3.1-4.7-4.6
	l-0.8-0.5c-0.7-0.4-1.4-0.7-2.1-0.8c0.5-0.2,0.9-0.3,1.1-0.3c2.6,0.6,6.3,3.3,7.1,4.5c0.6,0.8,0.6,1.8,0.6,2.5c0,0.3,0,0.5,0,0.7
	c0,0.1,0,0.1,0.1,0.2c0.4,0.6,1,1.6,1.7,1.8C48.8,62.5,48.6,62.6,48.3,62.6z M49.2,61.2c0,0,0,0.1,0,0.1c-0.2-0.2-0.7-0.7-1-1.2
	c0-0.2,0-0.3,0-0.5c0-0.8,0-1.8-0.6-2.8c0.5,0.5,0.8,0.9,1.1,1.2c0.1,0.1,0.2,0.3,0.3,0.4C49.2,59.7,49.3,60.8,49.2,61.2z
	 M45.2,49.3c-1.8-0.6-3.2-0.6-4-0.5c-0.2,0-0.4,0-0.5,0c0,0,0-0.1,0-0.2c0.2-0.5,0.4-0.7,0.8-0.9c0.7-0.4,1.2-0.8,1.2-2.4
	c-0.1-2.5-0.3-3.2-1.5-5.9c-0.3-0.7-0.7-1.4-1-2c-1-1.7-1.8-3.3-1.9-6c0-2.1,0-3.1,0.1-4c0.1-0.7,0.1-1.4,0.1-2.6v-0.3
	c0-0.4,0-0.8,0-1.2c0.6,0.7,1.3,1.3,2.2,1.9c1.1,0.8,1.7,1.6,1.7,2.2c0,0.8-0.9,1.2-0.9,1.2c-0.2,0.1-0.3,0.4-0.2,0.6
	c0.1,0.2,0.4,0.4,0.6,0.3c0.1,0,3.3-1,3.7-4.4c0.2-2.1-0.9-3.6-1.9-5c-0.2-0.3-0.4-0.5-0.6-0.8c0.4-0.3,0.6-0.8,0.6-1.8
	c0-0.7-0.2-1.4-0.3-2.2c0.4,0.9,1.1,1.5,2,1.8c2.5,0.8,3.9-0.2,5.1-1.6c-0.1,0.6,0.1,1.2,0.4,1.7c0.9,1.1,0.6,2.7-0.7,3.9
	c-1.4,1.3-1.8,1.8-1.5,2.3c0.3,0.5,0.9,0.3,1.2,0.3c0.5-0.1,1-0.6,1.8-1.2c0.8-0.7,1.8-1.5,2.8-2c0,0.2-0.1,0.4-0.1,0.6
	c-0.3,1.3-0.5,2.6-0.7,3.9c-0.3,2.6-0.4,3.2,0.1,3.5c0.4,0.3,0.8,0,1.4-0.3c0.5-0.3,1.2-0.7,2.1-1c0.4-0.1,0.8-0.3,1.2-0.5
	c-0.2,1.8-0.7,4.1-1.3,7.2c-1.4,7.1-1.9,10.4-2.1,11.6c-1.2-0.6-3.7-1.5-6.1-0.3c-0.3-0.6-0.6-2,0.3-4.7c1.4-4.2,3-12.8,3.1-14.3
	c0.1-1-0.6-1.1-0.7-1.1c-1-0.1-2,1.7-2.3,3.7c-0.1,0.7-0.1,1.6-0.1,2.4c0,2.3,0,4.6-1.6,5.1c-1.6,0.5-2.7,0.2-3.7-0.1
	c-0.5-0.1-1.1-0.3-1.7-0.3c-1.4-0.1-1.9-0.7-2-0.7c-0.2-0.2-0.4-0.2-0.7-0.1c-0.2,0.1-0.3,0.4-0.2,0.6c0,0.1,0.9,1.8,2.4,2.5
	c0.4,0.2,0.5,0.8,0.6,1.7c0.1,0.8,0.1,1.5,0.6,2c0.2,0.2,0.8,0.9,1.3,1.6c1.6,2.2,2.8,3.8,3.8,3.9c0.7,0.1,1.2,0.1,1.6,0.1
	c0.3,1.8,1.4,8.5,1.2,10.4c0,0.2,0,0.3-0.1,0.5c0,0-0.1,0-0.1-0.1c-0.2-0.2-0.6-0.4-1-0.7C49.4,54.6,47.9,50.2,45.2,49.3z
	 M50.5,32.7c0-0.4,0-0.8,0-1.1c0-0.8,0-1.6,0.1-2.3c0.2-1.3,0.7-2.2,1-2.6C51.5,27.5,51,30,50.5,32.7z M50.4,59.5
	c-0.1,0.1-0.2,0.2-0.3,0.3c0-0.2,0-0.3,0-0.5C50.2,59.4,50.3,59.4,50.4,59.5C50.4,59.5,50.4,59.5,50.4,59.5z M51.8,64.6
	c-0.2,0-0.3-0.1-0.5-0.2l0.3,0c0.8-0.1,0.8-0.1,1.5-0.1c0.1,0,0.2,0,0.3,0.1C52.9,64.6,52.3,64.6,51.8,64.6z M54.4,62.7l-0.2,0.4
	c-0.1,0.3-0.2,0.3-0.2,0.4c0,0-0.1,0-0.2,0c-0.2,0-0.4-0.1-0.7-0.1c0,0,0,0,0,0c-0.7,0-0.7,0-1.5,0.1l-0.3,0c-0.3,0-0.5-0.6-0.6-0.8
	l0,0c-0.1-0.3-0.2-0.4-0.5-0.4c-0.1,0-0.2,0-0.3,0.1c0.1-0.4,0.4-1,0.8-1.5c0,0.1,0,0.2,0,0.2c0,0.2,0.1,0.5,0.3,0.5
	c0.2,0.1,0.5,0,0.6-0.2c0,0,0.7-1,1.9-0.3c0.6,0.3,1,0.7,1.2,1.1C54.6,62.3,54.5,62.5,54.4,62.7z M66.8,64.6
	c-0.2,0.3-0.8,0.6-2.4,0.7c-2.2,0.1-3.7-1.2-5.4-2.6c-0.6-0.5-1.1-1-1.8-1.4c-1.9-1.4-1.8-4.6-1.7-7.2c0-0.5,0-0.9,0-1.4
	c0-0.5,0-1,0-1.5c0-3.5,0-4.2-0.6-4.3c0,0-0.1,0-0.1,0c-0.5,0-0.7,0.6-0.9,1.1c-1,2.7,0.4,10.4,1,11.8c0.2,0.4,0.2,0.8,0.2,1.2
	c-0.3-0.3-0.6-0.6-1.1-0.8c-0.9-0.5-1.6-0.4-2.1-0.2c0.1-0.4,0.1-0.9,0.2-1.6c0.3-2.4-1.2-10.9-1.3-11.2c0-0.1-0.1-0.3-0.2-0.3
	c-0.1-0.1-0.3-0.1-0.4-0.1c0,0-0.5,0.1-1.7,0c-0.7-0.1-2.3-2.3-3.1-3.5c-0.7-1-1.1-1.6-1.5-1.8c-0.2-0.2-0.2-0.8-0.3-1.3
	c-0.1-0.9-0.1-2.1-1.2-2.6c-0.3-0.1-0.5-0.3-0.7-0.4c0.2,0,0.4,0.1,0.6,0.1c0.5,0,1,0.2,1.5,0.3c1.1,0.3,2.3,0.6,4.3,0.1
	c0.7-0.2,1.1-0.5,1.5-1c-0.4,1.5-0.7,2.9-1.1,4c-1.4,4.2,0,5.8,0.1,6c0.2,0.2,0.4,0.2,0.6,0.1c2.8-1.7,6.1,0.4,6.1,0.4
	c0.1,0.1,0.3,0.1,0.5,0c0.2-0.1,0.3-0.2,0.3-0.4c0,0,0-0.3,0.2-1.2c0.1,0.3,0.3,0.8,0.6,1.4c0.7,1.4,1.9,3.8,2,6.3
	c0.3,5.1,0.3,7.1,1.8,8.4c1.2,1.1,2.1,1.2,5.5,1c0.2,0.4,0.4,0.7,0.5,0.9C66.9,64,66.9,64.3,66.8,64.6z M54.5,49.9
	c0,0.4,0,0.8,0,1.2c0,0,0,0.1,0,0.1C54.5,50.8,54.5,50.3,54.5,49.9z"/>
</svg>
