<?xml version="1.0" encoding="utf-8"?>
<!-- Generator: Adobe Illustrator 18.1.1, SVG Export Plug-In . SVG Version: 6.00 Build 0)  -->
<svg version="1.1" id="Layer_1" xmlns="http://www.w3.org/2000/svg" xmlns:xlink="http://www.w3.org/1999/xlink" x="0px" y="0px"
	 viewBox="0 0 59.5 59.5" enable-background="new 0 0 59.5 59.5" xml:space="preserve">
<g>
	<g>
		<defs>
			<circle id="SVGID_1_" cx="29.9" cy="29.4" r="28.3"/>
		</defs>
		<use xlink:href="#SVGID_1_"  overflow="visible" fill="#5A5957"/>
		<clipPath id="SVGID_2_">
			<use xlink:href="#SVGID_1_"  overflow="visible"/>
		</clipPath>
		<g clip-path="url(#SVGID_2_)">
			<path fill="#FFFFFF" d="M45.8,25.9c0-11.5-7.9-20.3-19.4-20.3C15.6,5.6,6.9,14.3,6.9,25c0,9.7,3.5,12.4,3.5,19.4
				c0,1.8-0.9,3.5-3.5,10.6L29,62.1l3.5-10.6h9.1c0.9,0,1.6-0.6,1.7-1.5l1.5-10.8h4.4v-0.9L45.8,25.9z"/>
		</g>
	</g>
	<g>
		<circle fill="#BAE2D9" cx="26.3" cy="25" r="8.8"/>
	</g>
	<path fill="#2E2D2E" d="M32.5,21.4h6.2v-6.2h-1.8v3.3c-2.2-3.7-6.2-6-10.6-6C19.5,12.6,14,18.2,14,25s5.5,12.4,12.4,12.4
		S38.7,31.8,38.7,25h-1.8c0,5.8-4.8,10.6-10.6,10.6S15.8,30.8,15.8,25s4.8-10.6,10.6-10.6c3.8,0,7.3,2,9.2,5.3h-3V21.4z"/>
	<g>
		<rect x="25.5" y="24.1" fill="#2E2D2E" width="1.8" height="1.8"/>
	</g>
	<g>
		<rect x="29" y="24.1" fill="#2E2D2E" width="1.8" height="1.8"/>
	</g>
	<g>
		<rect x="21.9" y="24.1" fill="#2E2D2E" width="1.8" height="1.8"/>
	</g>
</g>
</svg>
