<?xml version="1.0" encoding="utf-8"?>
<!-- Generator: Adobe Illustrator 18.1.1, SVG Export Plug-In . SVG Version: 6.00 Build 0)  -->
<svg version="1.1" id="Layer_1" xmlns="http://www.w3.org/2000/svg" xmlns:xlink="http://www.w3.org/1999/xlink" x="0px" y="0px"
	 viewBox="0 0 59.5 59.5" enable-background="new 0 0 59.5 59.5" xml:space="preserve">
<path fill="#A9A7A5" d="M57.8,29.6C57.8,14,45.2,1.3,29.6,1.3S1.3,14,1.3,29.6c0,7.5,2.9,14.3,7.7,19.3c0.8-2.2,1.2-3.3,1.2-4.3
	c0-7.1-3.5-9.7-3.5-19.4c0-10.7,8.7-19.4,19.4-19.4c11.5,0,19.4,8.8,19.4,20.3L49,38.4v0.9h-4.4L43,50.1c-0.1,0.9-0.9,1.5-1.7,1.5
	h-9.1l-2.1,6.2C45.5,57.5,57.8,45,57.8,29.6z"/>
<g>
	<g>
		<circle fill="#F37556" cx="26.1" cy="24.3" r="2.6"/>
	</g>
	<path fill="#2E2D2E" d="M26.9,37.5v-1.8c5.9-0.5,10.6-5.4,10.6-11.4c0-5.9-4.6-11-10.5-11.4l-0.1,1.8c5,0.4,8.9,4.7,8.9,9.7
		c0,5.4-4.4,9.7-9.7,9.7c-2.6,0-4.9-1-6.7-2.7l1.2-1.2c1.4,1.3,3.3,2.2,5.4,2.2c4.4,0,7.9-3.6,7.9-7.9s-3.6-7.9-7.9-7.9
		c-4,0-7.4,3-7.9,7l1.8,0.2c0.3-2.8,2.5-4.9,5.2-5.3V20c-2,0.4-3.5,2.2-3.5,4.3c0,2,1.4,3.8,3.3,4.3l0.4-1.7c-1.2-0.3-2-1.4-2-2.6
		c0-1.5,1.2-2.6,2.6-2.6s2.6,1.2,2.6,2.6c0,1.2-0.8,2.3-2,2.6l0.4,1.7c1.7-0.4,2.9-1.8,3.2-3.4h1.8c-0.4,3-3,5.3-6.1,5.3
		c-3.1,0-5.7-2.3-6.1-5.4l-1.8,0.2c0.2,1.3,0.6,2.4,1.3,3.5L18.2,30c-1.2-1.6-1.9-3.6-1.9-5.7c0-5,3.9-9.3,8.9-9.7l-0.1-1.8
		c-5.6,0.5-10,5-10.5,10.6h-1.8c0.5-6.9,6.2-12.4,13.2-12.4c7,0,12.8,5.5,13.2,12.4l1.8-0.1c-0.5-7.9-7.1-14.1-15-14.1
		c-8.3,0-15,6.7-15,15c0,8.3,6.7,15,15,15c7.9,0,14.5-6.2,15-14.1l-1.8-0.1C38.9,31.8,33.5,37.1,26.9,37.5z M26.9,20v-1.8
		c2.7,0.4,4.8,2.5,5.2,5.2h-1.8C30,21.7,28.7,20.3,26.9,20z M12.9,25.2h1.8c0.4,5.6,4.9,10.1,10.5,10.5v1.8
		C18.6,37.1,13.3,31.8,12.9,25.2z"/>
</g>
</svg>
