<?xml version="1.0" encoding="utf-8"?>
<!-- Generator: Adobe Illustrator 18.1.1, SVG Export Plug-In . SVG Version: 6.00 Build 0)  -->
<svg version="1.1" id="Layer_1" xmlns="http://www.w3.org/2000/svg" xmlns:xlink="http://www.w3.org/1999/xlink" x="0px" y="0px"
	 viewBox="0 0 59.5 59.5" enable-background="new 0 0 59.5 59.5" xml:space="preserve">
<g>
	<g>
		<path fill="#F37556" d="M40.1,21.6c0-11.5-7.9-20.3-19.4-20.3C9.9,1.2,1.2,9.9,1.2,20.7c0,9.7,3.5,12.4,3.5,19.4
			c0,1.8-0.9,3.5-3.5,10.6l22.1,7.1l3.5-10.6h9.1c0.9,0,1.6-0.6,1.7-1.5l1.5-10.8h4.4v-0.9L40.1,21.6z"/>
	</g>
	<g>
		<path fill="#2E2D2E" d="M35.6,57.7c-0.4,0-0.7-0.2-0.8-0.6L31.5,48h-8.2c-0.4,0-0.8-0.3-0.9-0.7l-2.5-11.7h-3.7
			c-0.5,0-0.9-0.4-0.9-0.9v-0.9c0-0.1,0-0.2,0-0.2l3.5-12.2C18.9,9.4,26.7,1.2,38.3,1.2c11.3,0,19.4,8.2,19.4,19.4
			c0,5.3-0.8,8.6-1.5,11.6c-0.6,2.4-1.1,4.7-1.1,7.9c0,1.7,0,2.5,2.6,9.4c0.1,0.2,0.1,0.5,0,0.7c-0.1,0.2-0.3,0.4-0.5,0.5l-21.2,7.1
			C35.8,57.7,35.7,57.7,35.6,57.7z M24,46.3h8.1c0.4,0,0.7,0.2,0.8,0.6l3.2,8.9l19.5-6.5c-2.4-6.4-2.4-7.4-2.4-9.2
			c0-3.4,0.6-5.7,1.2-8.3c0.7-3,1.5-6,1.5-11.1C56,10.4,48.5,3,38.3,3c-10.7,0-17.7,7.3-17.7,18.5c0,0.1,0,0.2,0,0.2l-3.5,12.1h3.5
			c0.4,0,0.8,0.3,0.9,0.7L24,46.3z"/>
	</g>
	<g>
		<path fill="#2E2D2E" d="M30.4,24.2c-2.4,0-4.4-1.6-4.4-3.5h1.8c0,1,1.2,1.8,2.6,1.8s2.6-0.8,2.6-1.8h1.8
			C34.8,22.6,32.8,24.2,30.4,24.2z"/>
	</g>
</g>
</svg>
